<?xml version="1.0" encoding="utf-8"?>
<svg version="1.1" xmlns="http://www.w3.org/2000/svg" xmlns:xlink="http://www.w3.org/1999/xlink" height="50" width="50">
  <defs>
    <path id="path-1" opacity="1" fill-rule="evenodd" d="M25,0 C26.379787561235,0 27.5,1.120212438765 27.5,2.5 L27.5,47.5 C27.5,48.879787561235 26.379787561235,50 25,50 C23.620212438765,50 22.5,48.879787561235 22.5,47.5 L22.5,2.5 C22.5,1.1202124387650003 23.620212438764998,4.440892098500626e-16 25,0 L25,0Z"/>
    <mask id="mask-2" maskUnits="userSpaceOnUse" maskContentUnits="userSpaceOnUse" x="0" y="0">
      <rect opacity="1" x="0" y="0" width="50" height="50" fill="black"/>
      <use xlink:href="#path-1" fill="white"/>
    </mask>
    <path id="path-3" opacity="1" fill-rule="evenodd" d="M25,0 C26.379787561235,0 27.5,1.120212438765 27.5,2.5 L27.5,47.5 C27.5,48.879787561235 26.379787561235,50 25,50 C23.620212438765,50 22.5,48.879787561235 22.5,47.5 L22.5,2.5 C22.5,1.1202124387650003 23.620212438764998,4.440892098500626e-16 25,0 L25,0Z"/>
    <mask id="mask-4" maskUnits="userSpaceOnUse" maskContentUnits="userSpaceOnUse" x="0" y="0">
      <rect opacity="1" x="0" y="0" width="50" height="50" fill="black"/>
      <use xlink:href="#path-3" fill="white"/>
    </mask>
  </defs>
  <g opacity="1">
    <g opacity="1">
      <g opacity="1">
        <use xlink:href="#path-1" fill="rgb(29,185,84)" fill-opacity="1"/>
        <use xlink:href="#path-1" fill-opacity="0" stroke="rgb(29,185,84)" stroke-opacity="1" stroke-width="2" stroke-linecap="butt" stroke-linejoin="miter" mask="url(#mask-2)"/>
      </g>
      <g transform="translate(25, 25) rotate(90.00003218077504) translate(-25, -25)" opacity="1">
        <use xlink:href="#path-3" fill="rgb(29,185,84)" fill-opacity="1"/>
        <use xlink:href="#path-3" fill-opacity="0" stroke="rgb(29,185,84)" stroke-opacity="1" stroke-width="2" stroke-linecap="butt" stroke-linejoin="miter" mask="url(#mask-4)"/>
      </g>
    </g>
  </g>
</svg>