<?xml version="1.0" encoding="utf-8"?>
<svg version="1.1" xmlns="http://www.w3.org/2000/svg" xmlns:xlink="http://www.w3.org/1999/xlink" height="89" width="89">
  <defs>
    <path id="path-1" opacity="1" fill-rule="evenodd" d="M84.22147369384766,0 C86.8607177734375,0 89,2.1321303844451904 89,4.762541770935059 L89,84.23745727539062 C89,86.86786651611328 86.8607177734375,89 84.22147369384766,89 L4.7785234451293945,89 C2.1392853260040283,89 0,86.86786651611328 0,84.23745727539062 L0,4.762541770935059 C0,2.1321303844451904 2.1392853260040283,0 4.7785234451293945,0 L84.22147369384766,0 L44.59945297241211,15.081184387207031 C28.323503494262695,15.081184387207031 15.081915855407715,28.278484344482422 15.081915855407715,44.5 C15.081915855407715,60.72151565551758 28.323503494262695,73.91881561279297 44.59945297241211,73.91881561279297 C60.875404357910156,73.91881561279297 74.11698913574219,60.72151565551758 74.11698913574219,44.5 C74.11698913574219,28.278484344482422 60.875404357910156,15.081184387207031 44.59945297241211,15.081184387207031 L84.22147369384766,0Z"/>
    <ellipse id="ellipse-2" opacity="1" rx="7.267536912751682" ry="7.243230769230756" cx="32.454536912751806" cy="44.5"/>
    <ellipse id="ellipse-3" opacity="1" rx="7.267238255033554" ry="7.242933110367886" cx="56.94417114093947" cy="44.499999999999886"/>
  </defs>
  <g opacity="1">
    <g opacity="1">
      <g opacity="1">
        <use xlink:href="#path-1" fill="rgb(29,185,84)" fill-opacity="1"/>
      </g>
      <g opacity="1">
        <use xlink:href="#ellipse-2" fill="rgb(29,185,84)" fill-opacity="1"/>
      </g>
      <g opacity="1">
        <use xlink:href="#ellipse-3" fill="rgb(29,185,84)" fill-opacity="1"/>
      </g>
    </g>
  </g>
</svg>